<?xml version="1.0" encoding="UTF-8" standalone="no"?>
<!-- Created with Inkscape (http://www.inkscape.org/) -->

<svg
   xmlns:dc="http://purl.org/dc/elements/1.1/"
   xmlns:cc="http://creativecommons.org/ns#"
   xmlns:rdf="http://www.w3.org/1999/02/22-rdf-syntax-ns#"
   xmlns:svg="http://www.w3.org/2000/svg"
   xmlns="http://www.w3.org/2000/svg"
   xmlns:sodipodi="http://sodipodi.sourceforge.net/DTD/sodipodi-0.dtd"
   xmlns:inkscape="http://www.inkscape.org/namespaces/inkscape"
   width="512"
   height="512"
   id="svg2"
   version="1.1"
   inkscape:version="0.91 r13725"
   sodipodi:docname="AppList.svg"
   inkscape:export-filename="C:\Users\owner\Pictures\ikaconnect-applogo150.scale-180.png"
   inkscape:export-xdpi="47.460938"
   inkscape:export-ydpi="47.460938">
  <defs
     id="defs4" />
  <sodipodi:namedview
     id="base"
     pagecolor="#000000"
     bordercolor="#666666"
     borderopacity="1.0"
     inkscape:pageopacity="0"
     inkscape:pageshadow="2"
     inkscape:zoom="1.4"
     inkscape:cx="58.642857"
     inkscape:cy="301.8294"
     inkscape:document-units="px"
     inkscape:current-layer="layer1"
     showgrid="false"
     inkscape:window-width="2560"
     inkscape:window-height="1360"
     inkscape:window-x="-11"
     inkscape:window-y="35"
     inkscape:window-maximized="1" />
  <metadata
     id="metadata7">
    <rdf:RDF>
      <cc:Work
         rdf:about="">
        <dc:format>image/svg+xml</dc:format>
        <dc:type
           rdf:resource="http://purl.org/dc/dcmitype/StillImage" />
        <dc:title></dc:title>
      </cc:Work>
    </rdf:RDF>
  </metadata>
  <g
     inkscape:label="レイヤー 1"
     inkscape:groupmode="layer"
     id="layer1"
     transform="translate(0,-540.36218)">
    <path
       style="display:inline;fill:#ffffff;fill-opacity:1;stroke:#ffffff;stroke-width:5.22185707;stroke-linecap:square;stroke-linejoin:miter;stroke-miterlimit:4;stroke-dasharray:none;stroke-dashoffset:0;stroke-opacity:1"
       d="M 109.7052,692.30332 109.7052,868.88042 151.86547,877.17599 151.86547,692.30332 109.7052,692.30332 Z"
       id="rect4067"
       inkscape:connector-curvature="0" />
    <path
       inkscape:connector-curvature="0"
       style="display:inline;fill:#ffffff;fill-opacity:1;stroke:#ffffff;stroke-width:7.08914709;stroke-linecap:square;stroke-linejoin:miter;stroke-miterlimit:4;stroke-dasharray:none;stroke-dashoffset:0;stroke-opacity:1"
       d="M 440.28559,622.53115 67.544928,694.25841 67.544928,704.21713 440.28559,632.42878 440.28559,622.53115 Z"
       id="rect4069" />
    <path
       style="display:inline;fill:#ffffff;fill-opacity:1;stroke:#ffffff;stroke-width:12.78176594;stroke-linecap:square;stroke-linejoin:miter;stroke-miterlimit:4;stroke-dasharray:none;stroke-dashoffset:0;stroke-opacity:1"
       d="M 348.24849,646.47397 348.24849,906.28087 439.33174,923.68625 437.18888,629.33111 Z"
       id="rect4071"
       inkscape:connector-curvature="0"
       sodipodi:nodetypes="ccccc" />
    <path
       inkscape:connector-curvature="0"
       style="display:inline;fill:#ffffff;fill-opacity:1;stroke:#ffffff;stroke-width:8.84922028;stroke-linecap:square;stroke-linejoin:miter;stroke-miterlimit:4;stroke-dasharray:none;stroke-dashoffset:0;stroke-opacity:1"
       d="M 205.66246,670.71615 205.66246,883.35822 265.61291,895.24505 265.61291,670.71615 205.66246,670.71615 Z"
       id="rect4073" />
    <g
       transform="matrix(1.9496079,0,0,1.955087,9.5440881,-1030.4062)"
       style="font-style:normal;font-weight:normal;font-size:40px;line-height:125%;font-family:Sans;letter-spacing:0px;word-spacing:0px;display:inline;fill:#ffffff;fill-opacity:1;stroke:#ffffff;stroke-width:0.51220441"
       id="text4562">
      <path
         inkscape:connector-curvature="0"
         d="M 209.81976,1013.9504 206.18109,1013.9504 206.18109,1025.218 204.70453,1025.218 204.70453,1013.9504 201.07465,1013.9504 201.07465,1012.6145 209.81976,1012.6145 Z"
         style="font-variant:normal;font-stretch:normal;font-size:18px;font-family:'Segoe UI';-inkscape-font-specification:'Segoe UI';fill:#ffffff;stroke:#ffffff;stroke-width:0.51220441"
         id="path4567" />
      <path
         inkscape:connector-curvature="0"
         d="M 224.63812,1025.218 223.17035,1025.218 223.17035,1016.7629 C 223.17034,1016.095 223.21135,1015.2776 223.2934,1014.3108 L 223.2582,1014.3108 C 223.11756,1014.8792 222.99159,1015.2864 222.88027,1015.5325 L 218.57363,1025.218 217.85293,1025.218 213.55507,1015.6028 C 213.43202,1015.3215 213.30605,1014.8909 213.17715,1014.3108 L 213.14195,1014.3108 C 213.18885,1014.8147 213.21225,1015.6379 213.21225,1016.7805 L 213.21225,1025.218 211.78842,1025.218 211.78842,1012.6145 213.7396,1012.6145 217.60678,1021.4036 C 217.9056,1022.0774 218.09896,1022.5813 218.18686,1022.9153 L 218.23956,1022.9153 C 218.4915,1022.2239 218.69365,1021.7083 218.846,1021.3684 L 222.79229,1012.6145 224.63799,1012.6145 Z"
         style="font-variant:normal;font-stretch:normal;font-size:18px;font-family:'Segoe UI';-inkscape-font-specification:'Segoe UI';fill:#ffffff;stroke:#ffffff;stroke-width:0.51220441"
         id="path4569" />
    </g>
  </g>
</svg>
