<?xml version="1.0" encoding="UTF-8" standalone="no"?>
<!-- Created with Inkscape (http://www.inkscape.org/) -->

<svg
   xmlns:dc="http://purl.org/dc/elements/1.1/"
   xmlns:cc="http://creativecommons.org/ns#"
   xmlns:rdf="http://www.w3.org/1999/02/22-rdf-syntax-ns#"
   xmlns:svg="http://www.w3.org/2000/svg"
   xmlns="http://www.w3.org/2000/svg"
   xmlns:sodipodi="http://sodipodi.sourceforge.net/DTD/sodipodi-0.dtd"
   xmlns:inkscape="http://www.inkscape.org/namespaces/inkscape"
   width="512"
   height="512"
   id="svg2"
   version="1.1"
   inkscape:version="0.91 r13725"
   sodipodi:docname="SquareLogo_contrast-white.svg"
   inkscape:export-filename="C:\Users\owner\Pictures\ikaconnect-applogo150.scale-180.png"
   inkscape:export-xdpi="47.460938"
   inkscape:export-ydpi="47.460938">
  <defs
     id="defs4" />
  <sodipodi:namedview
     id="base"
     pagecolor="#ffffff"
     bordercolor="#666666"
     borderopacity="1.0"
     inkscape:pageopacity="0"
     inkscape:pageshadow="2"
     inkscape:zoom="1.4"
     inkscape:cx="-141.35714"
     inkscape:cy="301.8294"
     inkscape:document-units="px"
     inkscape:current-layer="layer1"
     showgrid="false"
     inkscape:window-width="2560"
     inkscape:window-height="1360"
     inkscape:window-x="-11"
     inkscape:window-y="35"
     inkscape:window-maximized="1" />
  <metadata
     id="metadata7">
    <rdf:RDF>
      <cc:Work
         rdf:about="">
        <dc:format>image/svg+xml</dc:format>
        <dc:type
           rdf:resource="http://purl.org/dc/dcmitype/StillImage" />
        <dc:title></dc:title>
      </cc:Work>
    </rdf:RDF>
  </metadata>
  <g
     inkscape:label="レイヤー 1"
     inkscape:groupmode="layer"
     id="layer1"
     transform="translate(0,-540.36218)">
    <path
       style="display:inline;fill:#000000;fill-opacity:1;stroke:#000000;stroke-width:5.22185707;stroke-linecap:square;stroke-linejoin:miter;stroke-miterlimit:4;stroke-dasharray:none;stroke-dashoffset:0;stroke-opacity:1"
       d="M 192.16247,752.69329 192.16247,829.03899 210.46175,832.6257 210.46175,752.69329 192.16247,752.69329 Z"
       id="rect4067"
       inkscape:connector-curvature="0" />
    <path
       inkscape:connector-curvature="0"
       style="display:inline;fill:#000000;fill-opacity:1;stroke:#000000;stroke-width:7.08914709;stroke-linecap:square;stroke-linejoin:miter;stroke-miterlimit:4;stroke-dasharray:none;stroke-dashoffset:0;stroke-opacity:1"
       d="M 335.64782,722.52627 173.8632,753.5386 173.8632,757.8444 335.64782,726.80565 335.64782,722.52627 Z"
       id="rect4069" />
    <path
       style="display:inline;fill:#000000;fill-opacity:1;stroke:#000000;stroke-width:12.78176594;stroke-linecap:square;stroke-linejoin:miter;stroke-miterlimit:4;stroke-dasharray:none;stroke-dashoffset:0;stroke-opacity:1"
       d="M 295.69997,732.8783 295.69997,845.20963 335.23381,852.7351 334.30373,725.46633 Z"
       id="rect4071"
       inkscape:connector-curvature="0"
       sodipodi:nodetypes="ccccc" />
    <path
       inkscape:connector-curvature="0"
       style="display:inline;fill:#000000;fill-opacity:1;stroke:#000000;stroke-width:8.84922028;stroke-linecap:square;stroke-linejoin:miter;stroke-miterlimit:4;stroke-dasharray:none;stroke-dashoffset:0;stroke-opacity:1"
       d="M 233.81183,743.35976 233.81183,835.29868 259.83277,840.43813 259.83277,743.35976 233.81183,743.35976 Z"
       id="rect4073" />
    <g
       transform="matrix(0.84620922,0,0,0.84531059,148.68847,7.8545304)"
       style="font-style:normal;font-weight:normal;font-size:40px;line-height:125%;font-family:Sans;letter-spacing:0px;word-spacing:0px;display:inline;fill:#000000;fill-opacity:1;stroke:#000000;stroke-width:1.18236876"
       id="text4562">
      <path
         inkscape:connector-curvature="0"
         d="M 209.81976,1013.9504 206.18109,1013.9504 206.18109,1025.218 204.70453,1025.218 204.70453,1013.9504 201.07465,1013.9504 201.07465,1012.6145 209.81976,1012.6145 Z"
         style="font-variant:normal;font-stretch:normal;font-size:18px;font-family:'Segoe UI';-inkscape-font-specification:'Segoe UI';fill:#000000;stroke:#000000;stroke-width:1.18236876"
         id="path4567" />
      <path
         inkscape:connector-curvature="0"
         d="M 224.63812,1025.218 223.17035,1025.218 223.17035,1016.7629 C 223.17034,1016.095 223.21135,1015.2776 223.2934,1014.3108 L 223.2582,1014.3108 C 223.11756,1014.8792 222.99159,1015.2864 222.88027,1015.5325 L 218.57363,1025.218 217.85293,1025.218 213.55507,1015.6028 C 213.43202,1015.3215 213.30605,1014.8909 213.17715,1014.3108 L 213.14195,1014.3108 C 213.18885,1014.8147 213.21225,1015.6379 213.21225,1016.7805 L 213.21225,1025.218 211.78842,1025.218 211.78842,1012.6145 213.7396,1012.6145 217.60678,1021.4036 C 217.9056,1022.0774 218.09896,1022.5813 218.18686,1022.9153 L 218.23956,1022.9153 C 218.4915,1022.2239 218.69365,1021.7083 218.846,1021.3684 L 222.79229,1012.6145 224.63799,1012.6145 Z"
         style="font-variant:normal;font-stretch:normal;font-size:18px;font-family:'Segoe UI';-inkscape-font-specification:'Segoe UI';fill:#000000;stroke:#000000;stroke-width:1.18236876"
         id="path4569" />
    </g>
  </g>
</svg>
